<mxfile host="app.diagrams.net" modified="2023-12-06T12:19:07.524Z" agent="Mozilla/5.0 (Macintosh; Intel Mac OS X 10_15_7) AppleWebKit/537.36 (KHTML, like Gecko) Chrome/119.0.0.0 Safari/537.36" etag="kTfSrrQgTn2F-4fUW-Jd" version="21.7.5" type="github">
  <diagram name="第 1 页" id="exX6cmmcaGgwBnCrg6fS">
    <mxGraphModel dx="1434" dy="721" grid="1" gridSize="10" guides="1" tooltips="1" connect="1" arrows="1" fold="1" page="1" pageScale="1" pageWidth="827" pageHeight="1169" math="0" shadow="0">
      <root>
        <mxCell id="0" />
        <mxCell id="1" parent="0" />
        <mxCell id="xwTXogT9iWpn0WgfqS5U-1" value="" style="rounded=1;whiteSpace=wrap;html=1;shadow=0;glass=0;dashed=1;" vertex="1" parent="1">
          <mxGeometry x="60" y="210" width="470" height="260" as="geometry" />
        </mxCell>
        <mxCell id="xwTXogT9iWpn0WgfqS5U-5" style="edgeStyle=orthogonalEdgeStyle;rounded=0;orthogonalLoop=1;jettySize=auto;html=1;exitX=0.5;exitY=1;exitDx=0;exitDy=0;curved=1;" edge="1" parent="1" source="xwTXogT9iWpn0WgfqS5U-2" target="xwTXogT9iWpn0WgfqS5U-4">
          <mxGeometry relative="1" as="geometry" />
        </mxCell>
        <mxCell id="xwTXogT9iWpn0WgfqS5U-12" value="&lt;font style=&quot;font-size: 12px;&quot;&gt;3.SDK直接访问sqlite&lt;/font&gt;" style="edgeLabel;html=1;align=center;verticalAlign=middle;resizable=0;points=[];" vertex="1" connectable="0" parent="xwTXogT9iWpn0WgfqS5U-5">
          <mxGeometry x="-0.5" y="9" relative="1" as="geometry">
            <mxPoint as="offset" />
          </mxGeometry>
        </mxCell>
        <mxCell id="xwTXogT9iWpn0WgfqS5U-2" value="主服务容器" style="rounded=1;whiteSpace=wrap;html=1;fillColor=#d5e8d4;strokeColor=#82b366;" vertex="1" parent="1">
          <mxGeometry x="90" y="270" width="150" height="60" as="geometry" />
        </mxCell>
        <mxCell id="xwTXogT9iWpn0WgfqS5U-8" style="edgeStyle=orthogonalEdgeStyle;rounded=0;orthogonalLoop=1;jettySize=auto;html=1;exitX=1;exitY=0.5;exitDx=0;exitDy=0;" edge="1" parent="1" source="xwTXogT9iWpn0WgfqS5U-3" target="xwTXogT9iWpn0WgfqS5U-7">
          <mxGeometry relative="1" as="geometry" />
        </mxCell>
        <mxCell id="xwTXogT9iWpn0WgfqS5U-10" value="&lt;font style=&quot;font-size: 12px;&quot;&gt;1.拉取index.json全量词条&lt;/font&gt;" style="edgeLabel;html=1;align=center;verticalAlign=middle;resizable=0;points=[];" vertex="1" connectable="0" parent="xwTXogT9iWpn0WgfqS5U-8">
          <mxGeometry x="-0.0154" y="2" relative="1" as="geometry">
            <mxPoint as="offset" />
          </mxGeometry>
        </mxCell>
        <mxCell id="xwTXogT9iWpn0WgfqS5U-13" style="edgeStyle=orthogonalEdgeStyle;rounded=0;orthogonalLoop=1;jettySize=auto;html=1;exitX=0.5;exitY=1;exitDx=0;exitDy=0;entryX=0.5;entryY=1;entryDx=0;entryDy=0;curved=1;" edge="1" parent="1" source="xwTXogT9iWpn0WgfqS5U-3" target="xwTXogT9iWpn0WgfqS5U-7">
          <mxGeometry relative="1" as="geometry">
            <Array as="points">
              <mxPoint x="450" y="330" />
              <mxPoint x="450" y="380" />
              <mxPoint x="790" y="380" />
            </Array>
          </mxGeometry>
        </mxCell>
        <mxCell id="xwTXogT9iWpn0WgfqS5U-14" value="&lt;font style=&quot;font-size: 12px;&quot;&gt;4.周期拉取最新的inex.json写入sqlite&lt;/font&gt;" style="edgeLabel;html=1;align=center;verticalAlign=middle;resizable=0;points=[];" vertex="1" connectable="0" parent="xwTXogT9iWpn0WgfqS5U-13">
          <mxGeometry x="0.0816" y="3" relative="1" as="geometry">
            <mxPoint as="offset" />
          </mxGeometry>
        </mxCell>
        <mxCell id="xwTXogT9iWpn0WgfqS5U-16" style="edgeStyle=orthogonalEdgeStyle;rounded=0;orthogonalLoop=1;jettySize=auto;html=1;exitX=0.5;exitY=1;exitDx=0;exitDy=0;entryX=0.5;entryY=0;entryDx=0;entryDy=0;curved=1;" edge="1" parent="1" source="xwTXogT9iWpn0WgfqS5U-3" target="xwTXogT9iWpn0WgfqS5U-4">
          <mxGeometry relative="1" as="geometry" />
        </mxCell>
        <mxCell id="xwTXogT9iWpn0WgfqS5U-18" value="&lt;font style=&quot;font-size: 12px;&quot;&gt;2.根据json文件写入sqlite&lt;/font&gt;" style="edgeLabel;html=1;align=center;verticalAlign=middle;resizable=0;points=[];" vertex="1" connectable="0" parent="xwTXogT9iWpn0WgfqS5U-16">
          <mxGeometry x="-0.2105" y="-5" relative="1" as="geometry">
            <mxPoint as="offset" />
          </mxGeometry>
        </mxCell>
        <mxCell id="xwTXogT9iWpn0WgfqS5U-3" value="bbl副容器" style="rounded=1;whiteSpace=wrap;html=1;fillColor=#d5e8d4;strokeColor=#82b366;" vertex="1" parent="1">
          <mxGeometry x="350" y="270" width="140" height="60" as="geometry" />
        </mxCell>
        <mxCell id="xwTXogT9iWpn0WgfqS5U-4" value="&lt;p style=&quot;line-height: 130%;&quot;&gt;&lt;font style=&quot;font-size: 14px;&quot;&gt;sqlite.db&lt;/font&gt;&lt;/p&gt;" style="rounded=0;whiteSpace=wrap;html=1;fillColor=#f8cecc;strokeColor=#b85450;" vertex="1" parent="1">
          <mxGeometry x="90" y="390" width="400" height="40" as="geometry" />
        </mxCell>
        <mxCell id="xwTXogT9iWpn0WgfqS5U-7" value="OSS对象存储" style="rounded=1;whiteSpace=wrap;html=1;fillColor=#dae8fc;strokeColor=#6c8ebf;" vertex="1" parent="1">
          <mxGeometry x="730" y="270" width="120" height="60" as="geometry" />
        </mxCell>
      </root>
    </mxGraphModel>
  </diagram>
</mxfile>
